<svg width="24" height="25" viewBox="0 0 24 25" fill="none" xmlns="http://www.w3.org/2000/svg">
<g id="24 / basic / eye">
<path id="icon" fill-rule="evenodd" clip-rule="evenodd" d="M11.9995 4.41992C14.7271 4.41992 17.3352 5.85055 19.7658 8.20107C20.595 9.00297 21.3452 9.85908 22.0056 10.7155C22.4041 11.2324 22.6871 11.6389 22.842 11.8811L23.1866 12.4199L22.842 12.9587C22.6871 13.2009 22.4041 13.6075 22.0056 14.1243C21.3452 14.9808 20.595 15.8369 19.7658 16.6388C17.3352 18.9893 14.7271 20.4199 11.9995 20.4199C9.27199 20.4199 6.66386 18.9893 4.23324 16.6388C3.40403 15.8369 2.65384 14.9808 1.99344 14.1243C1.59494 13.6075 1.31201 13.2009 1.1571 12.9587L0.8125 12.4199L1.1571 11.8811C1.31201 11.6389 1.59494 11.2324 1.99344 10.7155C2.65384 9.85908 3.40403 9.00297 4.23324 8.20107C6.66386 5.85055 9.27199 4.41992 11.9995 4.41992ZM20.4218 11.9368C19.8171 11.1526 19.1297 10.3681 18.3755 9.63877C16.282 7.6143 14.1046 6.41992 11.9995 6.41992C9.89446 6.41992 7.71703 7.6143 5.62358 9.63877C4.86937 10.3681 4.18192 11.1526 3.57728 11.9368C3.44669 12.1062 3.32602 12.2677 3.2157 12.4199C3.32602 12.5721 3.44669 12.7337 3.57728 12.903C4.18192 13.6872 4.86937 14.4717 5.62358 15.2011C7.71703 17.2255 9.89446 18.4199 11.9995 18.4199C14.1046 18.4199 16.282 17.2255 18.3755 15.2011C19.1297 14.4717 19.8171 13.6872 20.4218 12.903C20.5524 12.7337 20.673 12.5721 20.7834 12.4199C20.673 12.2677 20.5524 12.1062 20.4218 11.9368ZM7.99953 12.4199C7.99953 14.6291 9.7904 16.4199 11.9995 16.4199C14.2087 16.4199 15.9995 14.6291 15.9995 12.4199C15.9995 10.2108 14.2087 8.41992 11.9995 8.41992C9.7904 8.41992 7.99953 10.2108 7.99953 12.4199ZM13.9995 12.4199C13.9995 13.5245 13.1041 14.4199 11.9995 14.4199C10.895 14.4199 9.99953 13.5245 9.99953 12.4199C9.99953 11.3154 10.895 10.4199 11.9995 10.4199C13.1041 10.4199 13.9995 11.3154 13.9995 12.4199Z" fill="#005B52"/>
</g>
</svg>
